HIERARCHY
ROOT Hips
{
  OFFSET -17.8222 7.7 127.125
  CHANNELS 6 Xposition Yposition Zposition Zrotation Xrotation Yrotation
  JOINT Spine
  {
    OFFSET 0.0 0.0 0.0
    CHANNELS 3 Zrotation Xrotation Yrotation
    JOINT Spine1
    {
      OFFSET 38.68 0.0 0.0
      CHANNELS 3 Zrotation Xrotation Yrotation
      JOINT Neck
      {
        OFFSET 0.0 0.0 0.0
        CHANNELS 3 Zrotation Xrotation Yrotation
        JOINT Head
        {
          OFFSET 0.0 0.0 0.0
          CHANNELS 3 Zrotation Xrotation Yrotation
          End Site
          {
            OFFSET 17 0 0
          }
        }
      }
      JOINT LeftShoulder
      {
        OFFSET 0.0 0.0 14.2
        CHANNELS 3 Zrotation Xrotation Yrotation
        JOINT LeftArm
        {
          OFFSET 0.0 0.0 0.0
          CHANNELS 3 Zrotation Xrotation Yrotation
          JOINT LeftForeArm
          {
            OFFSET 21.3 0.0 0.0
            CHANNELS 3 Zrotation Xrotation Yrotation
            JOINT LeftHand
            {
              OFFSET 21.3 0.0 0.0
              CHANNELS 3 Zrotation Xrotation Yrotation
              End Site
              {
                OFFSET 7.2 0 0
              }
            }
          }
        }
      }
      JOINT RightShoulder
      {
        OFFSET 0.0 0.0 -14.2
        CHANNELS 3 Zrotation Xrotation Yrotation
        JOINT RightArm
        {
          OFFSET 0.0 0.0 0.0
          CHANNELS 3 Zrotation Xrotation Yrotation
          JOINT RightForeArm
          {
            OFFSET 21.3 0.0 0.0
            CHANNELS 3 Zrotation Xrotation Yrotation
            JOINT RightHand
            {
              OFFSET 21.3 0.0 0.0
              CHANNELS 3 Zrotation Xrotation Yrotation
              End Site
              {
                OFFSET 7.2 0 0
              }
            }
          }
        }
      }
    }
  }
  JOINT LeftUpLeg
  {
    OFFSET 0.0 0.0 14.2
    CHANNELS 3 Zrotation Xrotation Yrotation
    JOINT LeftLeg
    {
      OFFSET 21.3 0.0 0.0
      CHANNELS 3 Zrotation Xrotation Yrotation
      JOINT LeftFoot
      {
        OFFSET 21.3 0.0 0.0
        CHANNELS 3 Zrotation Xrotation Yrotation
        End Site
        {
          OFFSET 0 -10.8 0
        }
      }
    }
  }
  JOINT RightUpLeg
  {
    OFFSET 0.0 0.0 -14.2
    CHANNELS 3 Zrotation Xrotation Yrotation
    JOINT RightLeg
    {
      OFFSET 21.3 0.0 0.0
      CHANNELS 3 Zrotation Xrotation Yrotation
      JOINT RightFoot
      {
        OFFSET 21.3 0.0 0.0
        CHANNELS 3 Zrotation Xrotation Yrotation
        End Site
        {
          OFFSET 0 -10.8 0
        }
      }
    }
  }
  JOINT Tail
  {
    OFFSET 0.0 0.0 0.0
    CHANNELS 3 Zrotation Xrotation Yrotation
    JOINT Tail1
    {
      OFFSET 0.0 0.0 0.0
      CHANNELS 3 Zrotation Xrotation Yrotation
      End Site
      {
        OFFSET 12 0 0
      }
    }
  }
}
MOTION
Frames:	16
Frame Time:	0.0166667
-111.083 8.54603 -32.3745 74.5946 -19.5224 103.032 -153.406 -13.2774 10.0758 -2.77145 -8.58185 -39.8726 30.4033 -1.89161 -70.3202 95.0427 65.7135 -73.6877 -102.033 -22.4084 -146.516 100.935 5.3446 -138.88 -76.2981 -28.4394 22.3554 -9.85098 2.34464 -6.71976 71.808 -42.3333 56.7393 97.647 5.4189 -14.887 -58.6015 68.2934 -80.4886 2.64472 -1.70822 22.0425 -123.054 2.6902 -7.71821 88.0059 6.73009 -0.622157 34.5308 -0.364741 -1.86218 -139.939 15.899 -2.27617 102.657 4.1308 -4.69766 39.8191 -3.33728 -5.38012 70.7679 80.8518 -101.622 3.17329 -5.20396 -0.142179 
-111.112 8.54694 -32.3575 74.435 -19.5477 102.936 -153.309 -13.236 9.99078 -2.86209 -8.48055 -39.883 30.4399 -1.94291 -70.2391 94.8618 65.7152 -73.6062 -102.021 -22.3905 -146.526 100.712 5.49703 -138.726 -76.2246 -28.7279 22.6185 -9.80848 2.33249 -6.66227 71.8262 -42.2637 56.6858 97.6153 5.50972 -15.0465 -58.9672 68.2607 -80.2036 2.57309 -1.70096 22.1037 -122.907 2.77103 -7.96129 87.8934 6.8356 -0.579677 34.4463 -0.370671 -1.8721 -139.703 15.9774 -2.5088 102.309 4.06097 -4.74199 39.8502 -3.3202 -5.34816 69.7134 80.8275 -100.543 3.16059 -5.20152 -0.134525 
-111.149 8.56878 -32.3594 74.1918 -19.7133 102.788 -153.071 -13.1551 9.78585 -2.96766 -8.33565 -39.7457 30.4379 -2.03095 -70.2748 94.964 65.8516 -73.6511 -102.024 -22.398 -146.515 100.476 5.56905 -138.533 -76.1577 -28.9724 22.7593 -9.78661 2.34809 -6.69163 71.8208 -42.2607 56.6681 97.5857 5.51382 -15.079 -58.7897 68.3193 -80.4225 2.61054 -1.70316 22.1497 -122.621 2.88291 -8.30751 87.7933 6.87352 -0.523418 34.3303 -0.3672 -1.86497 -139.335 16.0954 -2.77242 102.085 4.02255 -4.79482 39.9227 -3.30846 -5.33102 68.1336 80.7881 -98.8172 3.14554 -5.19933 -0.101197 
-111.149 8.57035 -32.3624 74.2046 -19.7515 102.771 -153.143 -13.1596 9.68287 -2.81722 -8.37585 -39.6449 30.4235 -2.13151 -70.2541 94.9383 65.9529 -73.5012 -102.04 -22.4233 -146.494 100.611 5.48653 -138.565 -76.1014 -28.8459 22.6326 -9.9049 2.36657 -6.72544 71.844 -42.2355 56.6903 97.498 5.52204 -14.9747 -58.5275 68.3545 -80.67 2.69928 -1.70259 22.1577 -122.576 2.83802 -8.34763 87.8046 6.81475 -0.496136 34.3377 -0.362023 -1.85231 -139.33 16.0871 -2.76291 102.215 4.04146 -4.7789 39.9194 -3.30685 -5.34277 68.081 80.7937 -98.7163 3.11919 -5.19799 -0.086968 
-111.124 8.55503 -32.3485 74.3951 -19.6265 102.868 -153.457 -13.2161 9.69966 -2.524 -8.53152 -39.6012 30.5294 -2.28155 -70.2239 94.5833 65.925 -73.2783 -102.031 -22.4181 -146.469 100.921 5.35747 -138.654 -76.068 -28.5666 22.4067 -10.0227 2.3704 -6.69447 71.8315 -42.2572 56.69 97.5377 5.57564 -14.9665 -58.1848 68.3331 -80.9728 2.66896 -1.71674 22.1491 -122.766 2.7195 -8.11766 87.8756 6.757 -0.513994 34.4386 -0.361424 -1.84797 -139.578 16.0016 -2.57431 102.403 4.02138 -4.72458 39.836 -3.30694 -5.35146 69.1747 80.8248 -99.89 3.09338 -5.19763 -0.090658 
-111.103 8.56032 -32.331 74.4967 -19.5013 102.932 -153.667 -13.2494 9.7033 -2.34579 -8.63127 -39.5275 30.6694 -2.43741 -70.2631 94.1234 65.8415 -73.126 -102.09 -22.4693 -146.554 101.005 5.37378 -138.798 -76.0422 -28.4419 22.3551 -10.0911 2.36891 -6.69096 71.8099 -42.2963 56.6914 97.6035 5.5441 -15.0104 -58.8368 68.282 -80.3338 2.45166 -1.72645 21.9617 -122.963 2.65967 -7.91864 87.9198 6.72974 -0.549319 34.5848 -0.359057 -1.85056 -139.749 15.9398 -2.41141 102.426 3.96961 -4.70247 39.7969 -3.30836 -5.34527 69.8879 80.8497 -100.716 3.09924 -5.20507 -0.071776 
-111.101 8.57507 -32.3333 74.4994 -19.5031 102.945 -153.604 -13.2561 9.66528 -2.39177 -8.63736 -39.4248 30.7053 -2.48494 -70.3102 94.0208 65.7636 -73.0062 -102.159 -22.5197 -146.684 100.758 5.51279 -138.845 -76.0742 -28.5137 22.4849 -10.1184 2.36118 -6.69274 71.8348 -42.2581 56.6994 97.5835 5.48773 -14.9944 -58.8668 68.334 -80.3145 2.43413 -1.73887 21.9373 -123.05 2.6687 -7.83474 87.9919 6.70893 -0.586847 34.6811 -0.354654 -1.85062 -139.752 15.9226 -2.34696 102.444 3.99096 -4.70629 39.8175 -3.31051 -5.35212 69.9942 80.855 -100.823 3.11689 -5.21521 -0.0514066 
-111.131 8.60136 -32.3531 74.287 -19.7126 102.877 -153.178 -13.1846 9.56594 -2.70862 -8.47314 -39.3155 30.7629 -2.47104 -70.3334 93.9722 65.6024 -72.9573 -102.16 -22.5105 -146.724 100.084 5.86079 -138.45 -75.9257 -29.122 22.9172 -9.8482 2.35799 -6.62156 71.8755 -42.1847 56.697 97.2593 5.27197 -14.4593 -59.9117 68.3889 -79.2993 2.51553 -1.73395 21.866 -122.879 2.85333 -7.98087 88.0563 6.68762 -0.636035 34.6 -0.345747 -1.83718 -139.402 16.0567 -2.53002 102.306 3.98611 -4.75978 39.8537 -3.31302 -5.35245 68.8158 80.7806 -99.4748 3.1171 -5.21801 -0.0623052 
-111.158 8.61796 -32.3598 74.1497 -19.835 102.87 -152.871 -13.1324 9.59829 -2.95062 -8.3634 -39.3348 30.7959 -2.41877 -70.3166 93.8988 65.4635 -72.9553 -102.141 -22.5181 -146.609 99.9789 5.76226 -138.424 -75.9448 -29.3763 23.0491 -9.79964 2.38282 -6.69566 71.8682 -42.1967 56.6956 97.3112 5.35506 -14.5377 -59.7661 68.3958 -79.4974 2.56823 -1.71154 21.8926 -122.727 2.99917 -8.03235 88.0307 6.65357 -0.694839 34.5261 -0.338507 -1.82491 -139.13 16.1652 -2.65061 102.106 3.9294 -4.8063 39.8508 -3.31546 -5.34214 68.1749 80.7028 -98.7315 3.12601 -5.21819 -0.087265 
-111.125 8.60049 -32.3386 74.2911 -19.6075 102.948 -153.174 -13.2153 9.75684 -2.83828 -8.48714 -39.4876 30.7958 -2.3554 -70.3602 93.9371 65.4424 -73.1004 -102.024 -22.4185 -146.436 100.443 5.47002 -138.699 -76.1481 -29.1626 22.9004 -9.95721 2.3892 -6.74487 71.8324 -42.2607 56.697 97.7196 5.54365 -15.1226 -57.8033 68.4605 -81.4675 2.60362 -1.73063 22.1541 -122.973 2.91277 -7.80684 88.0519 6.61694 -0.717508 34.5348 -0.340542 -1.82641 -139.5 16.079 -2.48525 102.254 3.91252 -4.77522 39.7593 -3.31728 -5.34121 69.1301 80.7565 -99.8873 3.14832 -5.21819 -0.0990621 
-111.068 8.5877 -32.334 74.415 -19.3885 102.986 -153.499 -13.3136 9.87137 -2.71569 -8.61916 -39.6153 30.8452 -2.25868 -70.4191 93.9641 65.2408 -73.1407 -101.988 -22.3909 -146.372 100.529 5.49752 -138.811 -76.1508 -29.2247 23.0039 -9.91347 2.37233 -6.67396 71.8386 -42.2541 56.7032 97.4994 5.27838 -14.6034 -58.9993 68.5125 -80.2869 2.44835 -1.75711 22.0494 -123.219 2.78191 -7.68902 88.0832 6.61425 -0.687202 34.5067 -0.347523 -1.83263 -139.972 15.9868 -2.28786 102.519 3.94549 -4.73003 39.7446 -3.31808 -5.33941 69.9555 80.8334 -100.923 3.17861 -5.21813 -0.101899 
-111.043 8.58382 -32.3462 74.4211 -19.3369 102.991 -153.573 -13.3445 9.93351 -2.68212 -8.65824 -39.7091 31.0064 -2.14765 -70.4367 93.8809 64.8373 -73.1112 -102.065 -22.4949 -146.34 100.533 5.44014 -138.949 -76.1285 -29.3223 23.1061 -9.94382 2.39283 -6.77152 71.8677 -42.2295 56.7412 97.3832 5.23301 -14.4816 -59.5012 68.5252 -79.8025 2.41856 -1.74728 22.0042 -123.237 2.73711 -7.77258 88.0317 6.66132 -0.637054 34.4443 -0.356059 -1.84169 -140.141 15.9877 -2.23727 102.608 3.98791 -4.71599 39.8629 -3.3172 -5.33776 70.0198 80.8401 -101.033 3.18533 -5.21868 -0.115639 
-111.079 8.58944 -32.3546 74.2445 -19.4878 102.937 -153.344 -13.267 9.90482 -2.78814 -8.54204 -39.7292 31.2747 -2.07904 -70.3832 93.5699 64.255 -72.9027 -102.087 -22.5176 -146.36 100.404 5.52174 -138.854 -76.0912 -29.5697 23.2591 -9.86595 2.41786 -6.88615 71.8499 -42.2614 56.742 97.5152 5.41055 -14.9117 -58.4078 68.5515 -80.9087 2.5699 -1.71936 22.2105 -123 2.84697 -8.05653 87.9516 6.71567 -0.59772 34.3031 -0.359877 -1.84179 -139.822 16.1183 -2.45783 102.406 4.00068 -4.76031 39.9468 -3.31113 -5.33657 68.955 80.7623 -99.8129 3.17223 -5.22056 -0.148081 
-111.117 8.59883 -32.3521 74.0771 -19.6269 102.867 -153.183 -13.1877 9.79401 -2.84644 -8.43449 -39.6253 31.6765 -2.06907 -70.3464 93.1004 63.4517 -72.5195 -102.074 -22.5025 -146.354 100.247 5.63308 -138.673 -75.9941 -29.7178 23.3221 -9.77983 2.41135 -6.81144 71.7943 -42.3168 56.6815 97.5179 5.40246 -14.9974 -58.013 68.5797 -81.3063 2.63045 -1.73072 22.387 -122.785 2.9352 -8.30538 87.8891 6.73981 -0.563328 34.2048 -0.359048 -1.8352 -139.503 16.2272 -2.66768 102.24 4.00551 -4.80026 39.8894 -3.30634 -5.33775 67.9578 80.71 -98.672 3.16393 -5.22514 -0.160157 
-111.102 8.60233 -32.342 74.0775 -19.5512 102.838 -153.403 -13.1918 9.67509 -2.69261 -8.46631 -39.4798 32.0956 -2.11277 -70.4404 92.8641 62.7915 -72.317 -102.017 -22.4325 -146.35 100.361 5.63719 -138.646 -75.9665 -29.4687 23.1358 -9.87448 2.38306 -6.65371 71.7721 -42.3141 56.6224 97.5678 5.37381 -15.1409 -58.224 68.5388 -81.0857 2.52168 -1.74401 22.2405 -122.873 2.90835 -8.25036 87.9129 6.65745 -0.566472 34.221 -0.349864 -1.82319 -139.61 16.2031 -2.6368 102.251 3.96123 -4.79436 39.8289 -3.30044 -5.32693 67.9399 80.7523 -98.7248 3.17547 -5.23228 -0.140487 
-111.051 8.60187 -32.3419 74.2305 -19.4248 102.907 -153.701 -13.2361 9.6874 -2.4731 -8.58352 -39.4257 32.5897 -2.15646 -70.5603 92.6829 62.1331 -72.2633 -102.041 -22.4233 -146.499 100.676 5.57235 -138.98 -76.0479 -29.0334 22.8484 -10.1134 2.39021 -6.71366 71.8137 -42.2652 56.6568 97.5648 5.28498 -15.1898 -58.5447 68.5116 -80.7444 2.47465 -1.7448 22.0776 -123.09 2.81216 -8.0216 88.0215 6.59932 -0.59333 34.2877 -0.347833 -1.8207 -139.929 16.1178 -2.40183 102.431 3.84962 -4.75461 39.8373 -3.29376 -5.31544 68.8888 80.8082 -99.7759 3.19115 -5.23949 -0.123435 
